<?xml version="1.0" standalone="no"?>
<!DOCTYPE svg PUBLIC "-//W3C//DTD SVG 20010904//EN"
 "http://www.w3.org/TR/2001/REC-SVG-20010904/DTD/svg10.dtd">
<svg version="1.0" xmlns="http://www.w3.org/2000/svg"
 width="262.000000pt" height="120.000000pt" viewBox="0 0 300.000000 167.000000"
 preserveAspectRatio="xMidYMid meet">
<metadata>
Created by potrace 1.10, written by Peter Selinger 2001-2011
</metadata>
<g transform="translate(0.000000,157.000000) scale(0.050000,-0.050000)"
fill="#f57c00" stroke="none">
<path d="M87 3117 c-87 -42 -87 -51 -87 -1618 l0 -1499 120 0 120 0 0 1450 0
1450 2510 0 2510 0 0 -540 c0 -325 -8 -540 -19 -540 -162 0 -759 280 -981 460
-49 40 -101 80 -115 88 -14 8 -78 -27 -155 -86 -412 -316 -1133 -562 -1650
-562 -78 0 -86 -37 -61 -281 46 -447 165 -890 340 -1270 l78 -169 122 0 121 0
-77 155 c-173 348 -303 763 -347 1116 -31 240 -30 240 147 257 395 36 925 221
1264 440 209 134 177 132 345 20 346 -232 1025 -467 1354 -468 121 -1 124 -10
85 -262 -61 -399 -181 -781 -351 -1119 -33 -65 -60 -123 -60 -128 0 -6 57 -11
128 -11 l127 0 75 175 c41 96 86 202 101 235 75 169 178 570 208 810 68 535
87 488 -207 516 -138 14 -224 31 -235 48 -9 14 -16 301 -16 637 1 660 1 663
-73 696 -67 31 -5257 30 -5321 0z"/>
<path d="M4060 1714 l-50 -25 -5 -503 c-5 -437 -2 -507 26 -534 37 -38 151
-42 185 -8 27 27 36 1047 9 1062 -46 26 -122 29 -165 8z"/>
<path d="M4008 352 c-6 -15 -8 -62 -4 -105 l6 -77 115 -6 115 -6 0 111 0 111
-111 0 c-76 0 -114 -9 -121 -28z"/>
</g>
</svg>
