 <svg  version="1.0" xmlns="http://www.w3.org/2000/svg"  width="300.000000pt" height="122.000000pt" viewBox="0 0 300.000000 122.000000"  preserveAspectRatio="xMidYMid meet">  <g transform="translate(0.000000,122.000000) scale(0.100000,-0.100000)" fill="#f44336" stroke="none"> <path d="M650 1210 c-7 -4 -19 -41 -27 -81 -28 -151 -85 -459 -110 -599 -14 -80 -29 -149 -33 -153 -4 -5 -27 40 -50 100 -24 59 -48 114 -53 120 -22 29 -40 9 -92 -102 l-54 -115 -36 0 c-20 0 -43 7 -51 15 -17 17 -60 20 -69 5 -3 -5 -22 -10 -41 -10 -31 0 -34 -2 -34 -30 0 -26 3 -30 29 -30 16 0 34 -7 41 -15 14 -17 56 -20 65 -5 3 6 30 10 59 10 29 0 60 6 69 13 9 6 32 47 52 91 20 43 38 76 41 74 2 -3 29 -66 58 -139 48 -118 57 -134 77 -134 23 0 25 10 86 334 34 183 64 335 67 338 2 3 7 -15 10 -39 5 -43 31 -482 42 -698 7 -155 8 -160 42 -160 l27 0 -7 108 c-7 107 -29 481 -48 817 -6 99 -13 203 -16 232 -5 51 -19 68 -44 53z"/> <path d="M1137 538 c-13 -29 -36 -83 -52 -120 -15 -38 -31 -68 -35 -68 -4 0 -15 18 -25 40 -14 31 -23 40 -39 38 -17 -3 -29 -34 -82 -216 l-62 -213 31 3 c31 3 31 4 73 146 23 79 44 146 47 149 3 3 13 -11 21 -31 15 -37 36 -46 54 -23 5 6 31 62 57 122 26 61 51 114 55 118 4 5 29 -28 55 -72 l47 -81 768 0 c713 0 771 -1 799 -18 30 -16 32 -16 62 1 17 9 44 17 60 17 26 0 29 4 29 30 0 28 -2 30 -39 30 -22 0 -43 5 -46 10 -9 15 -57 12 -79 -5 -17 -13 -126 -15 -767 -15 l-748 0 -63 105 c-74 124 -88 129 -121 53z"/> </g> </svg> 