<?xml version="1.0" standalone="no"?>
<!DOCTYPE svg PUBLIC "-//W3C//DTD SVG 20010904//EN"
 "http://www.w3.org/TR/2001/REC-SVG-20010904/DTD/svg10.dtd">
<svg version="1.0" xmlns="http://www.w3.org/2000/svg"
 width="159.000000pt" height="121.000000pt" viewBox="0 0 189.000000 151.000000"
 preserveAspectRatio="xMidYMid meet">
<metadata>
Created by potrace 1.10, written by Peter Selinger 2001-2011
</metadata>
<g transform="translate(0.000000,151.000000) scale(0.050000,-0.050000)"
fill="#00796b" stroke="none">
<path d="M962 2801 c-686 -163 -915 -225 -935 -252 -22 -30 -27 -278 -27
-1293 l0 -1256 110 0 110 0 0 1208 0 1208 55 14 c30 7 343 80 695 162 352 81
660 152 685 158 45 11 45 10 45 -240 0 -340 -10 -330 360 -330 l280 0 0 -1090
0 -1090 90 0 90 0 0 1224 0 1225 -114 115 c-78 79 -104 117 -85 124 32 10 582
112 605 112 8 0 14 -630 14 -1400 l0 -1400 110 0 110 0 0 1366 0 1366 135 23
c74 13 164 30 200 37 l65 13 0 -1402 0 -1403 110 0 110 0 0 1458 c0 802 -6
1473 -12 1491 -26 68 -76 71 -349 20 -262 -48 -297 -47 -299 15 -1 37 -109 27
-540 -53 l-470 -86 -94 87 c-115 107 20 124 -1054 -131z m1138 -211 l189 -190
-194 0 -195 0 0 190 c0 105 2 190 5 190 3 0 91 -85 195 -190z"/>
<path d="M800 1400 c-65 -65 -50 -96 144 -293 l183 -187 -183 -187 c-189 -193
-213 -241 -147 -300 64 -58 104 -37 296 151 l187 183 187 -183 c195 -191 241
-213 302 -145 58 64 25 123 -167 306 l-178 170 178 177 c198 197 216 228 169
299 -55 84 -104 62 -309 -140 l-192 -189 -192 189 c-207 204 -218 209 -278
149z"/>
</g>
</svg>
